TITLE ""
FILE "Step1_Track38.mp3" MP3
  TRACK 01 AUDIO
    TITLE "Step1_Track38_01"
    INDEX 01 00:00:00
  TRACK 02 AUDIO
    TITLE "Step1_Track38_02"
    INDEX 01 00:00:24
  TRACK 03 AUDIO
    TITLE "Step1_Track38_03"
    INDEX 01 00:01:70
  TRACK 04 AUDIO
    TITLE "Step1_Track38_04"
    INDEX 01 00:02:43
  TRACK 05 AUDIO
    TITLE "Step1_Track38_05"
    INDEX 01 00:03:40
  TRACK 06 AUDIO
    TITLE "Step1_Track38_06"
    INDEX 01 00:03:63
  TRACK 07 AUDIO
    TITLE "Step1_Track38_07"
    INDEX 01 00:06:13
  TRACK 08 AUDIO
    TITLE "Step1_Track38_08"
    INDEX 01 00:06:38
  TRACK 09 AUDIO
    TITLE "Step1_Track38_09"
    INDEX 01 00:07:34
  TRACK 10 AUDIO
    TITLE "Step1_Track38_10"
    INDEX 01 00:07:44
  TRACK 11 AUDIO
    TITLE "Step1_Track38_11"
    INDEX 01 00:10:75
  TRACK 12 AUDIO
    TITLE "Step1_Track38_12"
    INDEX 01 00:11:45
  TRACK 13 AUDIO
    TITLE "Step1_Track38_13"
    INDEX 01 00:12:39
  TRACK 14 AUDIO
    TITLE "Step1_Track38_14"
    INDEX 01 00:12:53
  TRACK 15 AUDIO
    TITLE "Step1_Track38_15"
    INDEX 01 00:15:55
  TRACK 16 AUDIO
    TITLE "Step1_Track38_16"
    INDEX 01 00:15:65
  TRACK 17 AUDIO
    TITLE "Step1_Track38_17"
    INDEX 01 00:16:60
  TRACK 18 AUDIO
    TITLE "Step1_Track38_18"
    INDEX 01 00:16:74
  TRACK 19 AUDIO
    TITLE "Step1_Track38_19"
    INDEX 01 00:19:29
  TRACK 20 AUDIO
    TITLE "Step1_Track38_20"
    INDEX 01 00:19:45
  TRACK 21 AUDIO
    TITLE "Step1_Track38_21"
    INDEX 01 00:20:38
  TRACK 22 AUDIO
    TITLE "Step1_Track38_22"
    INDEX 01 00:20:50
  TRACK 23 AUDIO
    TITLE "Step1_Track38_23"
    INDEX 01 00:23:19
  TRACK 24 AUDIO
    TITLE "Step1_Track38_24"
    INDEX 01 00:23:43
  TRACK 25 AUDIO
    TITLE "Step1_Track38_25"
    INDEX 01 00:24:44
  TRACK 26 AUDIO
    TITLE "Step1_Track38_26"
    INDEX 01 00:24:46
  TRACK 27 AUDIO
    TITLE "Step1_Track38_27"
    INDEX 01 00:27:03
  TRACK 28 AUDIO
    TITLE "Step1_Track38_28"
    INDEX 01 00:27:33
  TRACK 29 AUDIO
    TITLE "Step1_Track38_29"
    INDEX 01 00:28:38
  TRACK 30 AUDIO
    TITLE "Step1_Track38_30"
    INDEX 01 00:28:42
  TRACK 31 AUDIO
    TITLE "Step1_Track38_31"
    INDEX 01 00:30:58
  TRACK 32 AUDIO
    TITLE "Step1_Track38_32"
    INDEX 01 00:30:70
  TRACK 33 AUDIO
    TITLE "Step1_Track38_33"
    INDEX 01 00:31:64
  TRACK 34 AUDIO
    TITLE "Step1_Track38_34"
    INDEX 01 00:31:68
  TRACK 35 AUDIO
    TITLE "Step1_Track38_35"
    INDEX 01 00:34:17
  TRACK 36 AUDIO
    TITLE "Step1_Track38_36"
    INDEX 01 00:34:48
  TRACK 37 AUDIO
    TITLE "Step1_Track38_37"
    INDEX 01 00:35:50
  TRACK 38 AUDIO
    TITLE "Step1_Track38_38"
    INDEX 01 00:35:60
  TRACK 39 AUDIO
    TITLE "Step1_Track38_39"
    INDEX 01 00:38:15
  TRACK 40 AUDIO
    TITLE "Step1_Track38_40"
    INDEX 01 00:38:32
  TRACK 41 AUDIO
    TITLE "Step1_Track38_41"
    INDEX 01 00:39:28
  TRACK 42 AUDIO
    TITLE "Step1_Track38_42"
    INDEX 01 00:39:38
  TRACK 43 AUDIO
    TITLE "Step1_Track38_43"
    INDEX 01 00:42:52
